<svg xmlns="http://www.w3.org/2000/svg" width="24" height="24" viewBox="0 0 55 80" fill="none">
  <path fill="#FECC00" d="M45.39 2.28A2.71 2.71 0 0 0 42.3 0L30.93 1.83a8.75 8.75 0 0 1-17.28 2.74L2.28 6.37A2.71 2.71 0 0 0 0 9.46l10.78 68a2.7 2.7 0 0 0 3.09 2.25l11.37-1.8a8.75 8.75 0 0 1 17.31-2.71l11.37-1.8a2.69 2.69 0 0 0 2.24-3.09z"/>
  <path fill="#262626" d="M31.46 54.83l-1.31-7.12a2.91 2.91 0 0 0-.94-1.45c-1.37-1.07-5.08 1.2-3.34-7s4.2-4.6 5.89-5a2.84 2.84 0 0 0 1.44-1l4.09-6a2 2 0 0 0-.16-2.42c-1.14-1.17-3-2.87-4.37-3.17-3-.64-10.37 4.13-12.95 16.24S22 57.45 25 58.09c1.4.3 3.77-.51 5.28-1.12a2 2 0 0 0 1.14-2.14"/>
</svg>