<svg xmlns="http://www.w3.org/2000/svg" width="24" height="24" viewBox="0 0 24 24" fill="none">
  <g fill="currentColor">
    <path d="M14.93 2.55C15.11 2.5 15.3 2.45 15.51 2.39C15.96 2.26 16.19 2.19 16.39 2.16C17.72 1.96 19.01 2.67 19.57 3.89C19.65 4.07 19.72 4.30 19.85 4.75C19.90 4.91 19.92 4.98 19.93 5.05C20.00 5.50 19.77 5.93 19.36 6.12C19.29 6.15 19.22 6.17 19.06 6.21L14.43 7.58L14.93 2.55Z"/>
    <path d="M9.43 4.19L13.43 3.01L12.93 8.04L8.93 9.22L9.43 4.19Z"/>
    <path fill-rule="evenodd" clip-rule="evenodd" d="M7.93 4.63C7.75 4.68 7.57 4.73 7.36 4.79L4.29 5.67C3.02 6.23 2.30 7.59 2.55 8.95C2.58 9.15 2.66 9.38 2.81 9.84C2.85 9.98 2.88 10.05 2.91 10.11C3.00 10.30 3.14 10.45 3.32 10.56L3.5 10.87V15.87C3.5 18.70 3.5 20.11 4.38 20.99C5.26 21.87 6.67 21.87 9.5 21.87H15.5C18.33 21.87 19.74 21.87 20.62 20.99C21.5 20.11 21.5 18.70 21.5 15.87V12.87C21.5 11.93 21.5 11.46 21.21 11.16C20.91 10.87 20.44 10.87 19.5 10.87H7.43L7.93 4.63ZM15.5 17.12H17.5C17.91 17.12 18.25 17.46 18.25 17.87C18.25 18.28 17.91 18.62 17.5 18.62H15.5C15.09 18.62 14.75 18.28 14.75 17.87C14.75 17.46 15.09 17.12 15.5 17.12Z"/>
  </g>
</svg>